<svg xmlns="http://www.w3.org/2000/svg" version="1.1" viewBox="403.456 194.56 653.312 534.528" style="max-height: 500px" width="653.312" height="534.528">
<path transform="translate(0,0)" fill="#FDFCFC" d="M0 0 C506.88 0 1013.76 0 1536 0 C1536 337.92 1536 675.84 1536 1024 C1029.12 1024 522.24 1024 0 1024 C0 686.08 0 348.16 0 0 Z"/>
<path transform="translate(577,214)" fill="#77AE34" d="M0 0 C3.14568649 1.38196421 5.74245137 3.24461703 8.46459961 5.32470703 C21.87721405 15.56253198 36.38768596 24.47902103 51.1875 32.5625 C67.06384033 41.28845924 81.80157476 51.58066447 95 64 C96.18916016 65.10988281 96.18916016 65.10988281 97.40234375 66.2421875 C99 68 99 68 99 70 C99.99 70.33 100.98 70.66 102 71 C103.84554486 73.14965726 105.52769816 75.27580794 107.1875 77.5625 C107.6729126 78.22854248 108.1583252 78.89458496 108.65844727 79.58081055 C117.25649256 91.71097986 123.51419493 105.57179815 127 120 C127.3810791 119.5781543 127.7621582 119.15630859 128.15478516 118.72167969 C143.38728982 101.94635486 160.03401889 88.66299744 178.45703125 75.53515625 C189.2846027 67.68765034 198.90576655 59.08155053 205 47 C206.60562431 49.8997343 207.37677505 52.38398693 207.859375 55.65625 C208.07424561 57.04529541 208.07424561 57.04529541 208.29345703 58.46240234 C208.44411621 59.46480957 208.59477539 60.4672168 208.75 61.5 C210.2216356 70.87502368 212.05685283 80.11428259 214.125 89.375 C216.44583026 99.90976317 218.29100619 110.23420164 219 121 C219.09410156 122.09699219 219.18820312 123.19398438 219.28515625 124.32421875 C219.66284255 132.35247378 218.28030972 139.89005906 216.75 147.75 C216.54560303 148.80388916 216.34120605 149.85777832 216.13061523 150.94360352 C214.73891364 157.62661029 212.76496216 163.75888716 210 170 C209.05640625 170.09796875 208.1128125 170.1959375 207.140625 170.296875 C183.41586677 173.05999945 162.76908509 184.65750949 147.76953125 203.54980469 C146.05613429 205.79171871 144.36518017 208.04963171 142.68188477 210.31420898 C139.25743018 214.84937035 135.49627096 218.54616057 131 222 C131 218.68010298 131.41297356 218.03376387 133.23828125 215.40234375 C133.9653125 214.33814209 133.9653125 214.33814209 134.70703125 213.25244141 C135.23683594 212.48851074 135.76664063 211.72458008 136.3125 210.9375 C142.01318397 202.55364457 147.37572598 194.0176785 152.59375 185.32714844 C154.03634049 182.93986154 155.50049488 180.56688865 156.96875 178.1953125 C169.00186664 158.65096712 178.43172008 138.66561327 186 117 C186.3084082 116.12698242 186.61681641 115.25396484 186.93457031 114.35449219 C189.87249814 106.00067093 192.58546324 97.77012792 194 89 C193.45085937 90.45792969 193.45085937 90.45792969 192.890625 91.9453125 C187.98920186 104.56830481 181.65526657 116.22729952 175 128 C174.33674741 129.18722518 173.67391228 130.37468379 173.01171875 131.5625 C165.90379069 144.17079811 158.43500936 156.58244783 151 169 C150.49082031 169.85078125 149.98164062 170.7015625 149.45703125 171.578125 C143.8609889 180.87813808 137.78856528 189.53386505 131 198 C129.96552734 199.32451172 129.96552734 199.32451172 128.91015625 200.67578125 C115.53466755 217.70635399 115.53466755 217.70635399 110 220 C109.67 219.67 109.34 219.34 109 219 C108.70867187 219.49628906 108.41734375 219.99257813 108.1171875 220.50390625 C105.17475237 225.38020597 102.01477406 229.93440601 98 234 C97.67 234 97.34 234 97 234 C96.87882812 232.97261719 96.75765625 231.94523438 96.6328125 230.88671875 C96.46371393 229.48695835 96.29443313 228.08721995 96.125 226.6875 C96.04636719 226.01654297 95.96773437 225.34558594 95.88671875 224.65429688 C95.16255388 218.72171541 94.10122878 212.87274954 93 207 C92.79858398 205.89084229 92.59716797 204.78168457 92.38964844 203.63891602 C89.25724632 186.42127096 85.61110577 169.54913539 80.77001953 152.71679688 C80.11228875 150.39617919 79.49473837 148.07226858 78.90234375 145.734375 C70.49896205 114.1657776 55.25170549 80.73254478 35.34619141 54.78466797 C33.04821402 51.73820176 30.90521811 48.58574551 28.75 45.4375 C28.02296875 44.38433594 27.2959375 43.33117187 26.546875 42.24609375 C26.03640625 41.50488281 25.5259375 40.76367188 25 40 C25.44730469 40.89460938 25.89460937 41.78921875 26.35546875 42.7109375 C29.98046875 49.9609375 29.98046875 49.9609375 30.95629883 51.92456055 C31.6674474 53.33870652 32.39183275 54.74625519 33.12768555 56.14770508 C37.11884005 63.85339941 40.28049201 71.8662138 43.4375 79.9375 C43.72446747 80.66755249 44.01143494 81.39760498 44.30709839 82.14978027 C48.44472399 92.69452252 52.30058348 103.25811949 55.45751953 114.14355469 C56.26313987 116.90050206 57.13659664 119.63568815 58 122.375 C58.67142342 124.58189174 59.33760849 126.79038057 60 129 C60.20560547 129.68030273 60.41121094 130.36060547 60.62304688 131.06152344 C67.52171985 154.0271058 73.16294733 177.34448531 77.4375 200.9375 C77.56310303 201.62751099 77.68870605 202.31752197 77.81811523 203.02844238 C79.75820844 213.77372272 81.18838375 224.20216362 81.0625 235.125 C81.05798828 235.89070312 81.05347656 236.65640625 81.04882812 237.4453125 C81.03725564 239.29691037 81.01933155 241.14846688 81 243 C77.22149991 239.69094992 75.27848011 235.26651472 72.9140625 230.91015625 C70.92498423 227.8859454 68.93036762 226.08952331 66 224 C66.33773437 224.83402344 66.67546875 225.66804687 67.0234375 226.52734375 C69.58859336 232.99954335 71.67444724 239.18126673 73 246 C73.49404863 248.14721136 73.99451718 250.29295161 74.5 252.4375 C75.7750514 257.93899081 76.935883 263.45407255 78 269 C73.50201616 267.50067205 70.08876026 264.98012772 66.375 262.125 C57.59063316 255.53232829 48.35794815 249.73709501 39 244 C38.35063477 243.60071289 37.70126953 243.20142578 37.03222656 242.79003906 C32.71641273 240.14456679 28.365957 237.56168986 24 235 C23.21399414 234.5359375 22.42798828 234.071875 21.61816406 233.59375 C-3.09632686 219.04355526 -28.49776474 208.24865543 -56 200 C-57.64307129 199.49448608 -57.64307129 199.49448608 -59.31933594 198.97875977 C-68.89361746 196.04790507 -78.65378371 194.12429644 -88.4609375 192.1484375 C-91.82831021 191.46900503 -95.15455469 190.72545175 -98.4765625 189.8515625 C-102.04386255 188.84338571 -102.04386255 188.84338571 -106 189 C-105.38930664 189.20979492 -104.77861328 189.41958984 -104.14941406 189.63574219 C-80.20408941 197.9193862 -57.17004583 207.94011066 -34.25 218.6875 C-33.13194473 219.20908691 -33.13194473 219.20908691 -31.99130249 219.74121094 C-22.5868938 224.13897565 -13.46160564 228.85585616 -4.46728516 234.04272461 C-1.39656968 235.77613722 1.69179202 237.36137 4.875 238.875 C21.3493857 246.95508018 37.6186692 257.64780777 52 269 C52 269.33 52 269.66 52 270 C42.43 270 32.86 270 23 270 C23.2165625 277.05375 23.2165625 277.05375 23.4375 284.25 C23.48060303 285.72758789 23.52370605 287.20517578 23.56811523 288.72753906 C23.60622314 289.89510742 23.64433105 291.06267578 23.68359375 292.265625 C23.73858032 294.05661621 23.73858032 294.05661621 23.79467773 295.88378906 C23.96208994 298.42463255 24.26317859 300.5771424 25 303 C1.76809579 310.74396807 -27.70223865 300.70177921 -48.61230469 290.28735352 C-62.11661202 283.31338828 -73.71350601 273.90199256 -84.58789062 263.36523438 C-85.85331747 262.1418134 -87.13650105 260.9368216 -88.421875 259.734375 C-94.41094644 254.00015766 -99.42272232 247.5873734 -104.44628906 241.02001953 C-106.10366109 238.86522755 -107.78012677 236.7263967 -109.4609375 234.58984375 C-114.88966532 227.67867269 -120.25699953 220.75274537 -125.3125 213.5625 C-134.37520182 200.69276923 -144.80152199 189.03834977 -156.01953125 178.015625 C-156.61121094 177.43296875 -157.20289063 176.8503125 -157.8125 176.25 C-158.41707031 175.65703125 -159.02164062 175.0640625 -159.64453125 174.453125 C-161 173 -161 173 -161 172 C-160.32235596 172.01571045 -159.64471191 172.0314209 -158.9465332 172.04760742 C-144.49628142 172.33634443 -130.64748181 171.91128187 -116.40234375 169.41894531 C-114.08375062 169.01460529 -111.76247178 168.6391068 -109.4375 168.2734375 C-102.29204774 167.13705232 -95.18344672 165.85538077 -88.08300781 164.46557617 C-44.58357133 155.98295076 -4.36706592 159.58546958 33.375 184.625 C34.92673991 185.73606452 36.47109609 186.85771547 38 188 C38.99 188.66 39.98 189.32 41 190 C28.19627286 175.43286458 28.19627286 175.43286458 11.97265625 165.16796875 C-0.67677246 159.46866588 -0.67677246 159.46866588 -2.75 154.75 C-3.22772453 152.84763266 -3.63519795 150.92721086 -4 149 C-4.3584015 147.71310608 -4.72356016 146.42808377 -5.09375 145.14453125 C-11.52308945 120.91912368 -8.84394674 93.64407046 -4.57763672 69.30761719 C-3.980647 65.88918242 -3.42537611 62.46591393 -2.87890625 59.0390625 C-2.20916867 54.87673393 -1.53512409 50.71543164 -0.83203125 46.55859375 C-0.69514893 45.74704834 -0.5582666 44.93550293 -0.41723633 44.09936523 C0 42 0 42 1 39 C1.09570252 36.73726731 1.13073923 34.47178596 1.1328125 32.20703125 C1.13376923 31.54217209 1.13472595 30.87731293 1.13571167 30.19230652 C1.13639176 28.784372 1.1345494 27.37643434 1.13037109 25.96850586 C1.12506266 23.83765393 1.1302998 21.70701688 1.13671875 19.57617188 C1.13962553 12.97806172 1.06594452 6.52256528 0 0 Z"/>
<path transform="translate(561.4209327697754,650.3372491896152)" fill="#6BA52F" d="M0 0 C1.07989511 0.01798752 1.07989511 0.01798752 2.18160629 0.03633842 C2.95492168 0.02937081 3.72823708 0.0224032 4.52498627 0.01522446 C7.13205237 -0.00210418 9.73764911 0.01638908 12.34469223 0.03456172 C14.22620954 0.02951963 16.10772206 0.02229342 17.98922348 0.01306358 C23.17174156 -0.00593359 28.3537903 0.00641705 33.53629684 0.02378651 C39.12056643 0.03711776 44.70476539 0.02173871 50.28902817 0.00996456 C61.23341386 -0.00844816 72.17762144 0.00012452 83.12200165 0.01805278 C92.01395301 0.03205856 100.9058559 0.03597594 109.79781723 0.03261051 C111.0616851 0.03213306 112.32555298 0.03165562 113.62771988 0.03116371 C116.19496283 0.03013742 118.76220577 0.02908206 121.3294487 0.02799795 C144.73498057 0.0191643 168.14040098 0.0378462 191.54590416 0.06852818 C212.92157569 0.09638977 234.29713349 0.10135292 255.67281723 0.08633479 C261.14612446 0.08251249 266.61943169 0.07871774 272.09273911 0.07516441 C272.76652509 0.07472659 273.44031107 0.07428878 274.13451481 0.0738377 C291.98513571 0.0626031 309.83574801 0.07001574 327.68636703 0.08304515 C330.24435043 0.08488961 332.80233382 0.08672434 335.36031723 0.08854923 C337.24835445 0.08991736 337.24835445 0.08991736 339.17453384 0.09131313 C348.0593884 0.09692738 356.94421423 0.09360309 365.82906723 0.08700427 C376.65160697 0.07928571 387.4740243 0.08597031 398.29653931 0.11117931 C403.82205087 0.12370868 409.34737154 0.12977933 414.87289047 0.11863765 C419.92597111 0.10864072 424.97867001 0.11695736 430.03170395 0.14021883 C431.864746 0.14540368 433.6978219 0.14377069 435.53084946 0.13482418 C438.01320586 0.12371158 440.49425282 0.13696958 442.97652817 0.15659294 C444.05642328 0.14297471 444.05642328 0.14297471 445.15813446 0.12908137 C448.55321089 0.18178439 450.29817169 0.44636745 453.02248001 2.5449945 C454.92830754 5.1378966 455.08514929 6.53780173 455.09664536 9.73501644 C455.109254 10.74286189 455.12186264 11.75070735 455.13485336 12.78909358 C455.12270798 14.41264766 455.12270798 14.41264766 455.11031723 16.06900081 C455.11414413 17.18585262 455.11797104 18.30270442 455.12191391 19.45340022 C455.12463479 21.81372027 455.11726143 24.17407038 455.10055161 26.53433284 C455.07914607 30.14943656 455.10034901 33.76255274 455.12594223 37.37759456 C455.12329899 39.6705677 455.11817409 41.96353961 455.11031723 44.25650081 C455.11841415 45.3388702 455.12651108 46.42123958 455.13485336 47.53640804 C455.1159404 49.04817623 455.1159404 49.04817623 455.09664536 50.59048519 C455.09346298 51.47554744 455.09028061 52.3606097 455.0870018 53.27249202 C454.38454036 56.57816315 453.25215867 57.60357786 450.57906723 59.66275081 C447.90711306 60.05582847 445.64680876 60.20258277 442.97652817 60.16890869 C441.81655508 60.17807872 441.81655508 60.17807872 440.63314819 60.18743402 C438.02627442 60.20310914 435.42032106 60.19013798 432.81344223 60.17741451 C430.93192626 60.18273647 429.05041454 60.18980012 427.16891098 60.19846156 C421.98646247 60.21716213 416.80429828 60.21075847 411.62183762 60.20030853 C406.03756817 60.19333753 400.45335839 60.2092984 394.86910629 60.22230586 C383.92475201 60.24398603 372.98050153 60.24380874 362.03613281 60.23568032 C353.14418405 60.22938941 344.25226566 60.23050899 335.36031723 60.23695239 C334.09644936 60.23785405 332.83258148 60.2387557 331.53041458 60.23968468 C328.96317163 60.24153581 326.39592869 60.24339837 323.82868576 60.24527224 C306.58336529 60.25714882 289.3380594 60.26154292 272.09273911 60.25033721 C271.41811976 60.24989924 270.74350042 60.24946127 270.04843807 60.24901003 C264.56970204 60.24540303 259.09096617 60.24156835 253.6122303 60.2377191 C232.23654526 60.2228688 210.86098796 60.23165354 189.48531723 60.25967464 C165.4807815 60.29108156 141.47633142 60.30601143 117.47176743 60.29587463 C114.91378404 60.29485203 112.35580064 60.29385743 109.79781723 60.29289111 C108.53912575 60.29241473 107.28043427 60.29193834 105.98360062 60.29144751 C97.098732 60.28927956 88.21392269 60.29910764 79.32906723 60.31366214 C68.50651632 60.33114295 57.6841391 60.3311293 46.86159515 60.30831049 C41.33603832 60.29712986 35.81078797 60.29409202 30.28524399 60.31261119 C25.23210158 60.32932967 20.17953502 60.32318277 15.12643051 60.2983944 C13.29338459 60.2934822 11.46029297 60.29710469 9.627285 60.30988184 C7.1446877 60.32594516 4.66411045 60.31153068 2.18160629 60.2891632 C1.46167622 60.30115488 0.74174614 60.31314656 0 60.32550162 C-3.72794676 60.25641222 -5.15442793 59.92314736 -7.86434555 57.27534106 C-9.55149305 54.44361724 -9.92621398 52.93884065 -9.93851089 49.67642269 C-9.95111954 48.71192195 -9.96372818 47.74742122 -9.9767189 46.75369319 C-9.96862198 45.72336971 -9.96052505 44.69304622 -9.95218277 43.63150081 C-9.95600967 42.56282771 -9.95983658 41.49415462 -9.96377945 40.39309749 C-9.96649741 38.13710644 -9.95914442 35.88108382 -9.94241714 33.62515315 C-9.9210071 30.17473047 -9.94222405 26.72639008 -9.96780777 23.27603206 C-9.96516447 21.08201705 -9.96003946 18.88800334 -9.95218277 16.69400081 C-9.96027969 15.66367732 -9.96837662 14.63335384 -9.9767189 13.57180843 C-9.95780594 12.12505733 -9.95780594 12.12505733 -9.93851089 10.64907894 C-9.93532852 9.80478328 -9.93214615 8.96048763 -9.92886734 8.09060726 C-8.74205164 2.41779365 -5.71212117 0.10586177 0 0 Z"/>
<path transform="translate(610,495)" fill="#3E7629" d="M0 0 C9.68463383 -0.04658639 19.36922838 -0.08200169 29.05395031 -0.10362434 C33.55220215 -0.11400837 38.05037664 -0.12806779 42.54858398 -0.15087891 C46.89931803 -0.17280107 51.24997825 -0.18460895 55.60076332 -0.18975449 C57.25072706 -0.1934158 58.90068731 -0.20056407 60.55061913 -0.21146011 C73.24955195 -0.29189618 85.57124571 0.24842782 97.625 4.6875 C98.34300781 4.94877686 99.06101562 5.21005371 99.80078125 5.47924805 C117.41686196 12.16236843 127.66563397 24.332044 135.38671875 40.9921875 C142.17506307 59.71372656 139.60032011 83.63817461 131.67382812 101.49169922 C124.49744366 116.66218542 111.22475681 127.14398003 95.58544922 132.85375977 C76.24974526 139.03523396 56.69527977 138.49769426 36.6451416 138.2746582 C32.50114253 138.23308031 28.35703997 138.21533243 24.21289062 138.1953125 C16.14165072 138.15294287 8.07090272 138.08505483 0 138 C0 134.37 0 130.74 0 127 C0.83144531 126.81824219 1.66289063 126.63648438 2.51953125 126.44921875 C3.60621094 126.19785156 4.69289063 125.94648437 5.8125 125.6875 C6.89144531 125.44386719 7.97039063 125.20023438 9.08203125 124.94921875 C12.08138342 123.97352588 13.09709367 123.42392678 15 121 C15.448765 118.97457485 15.448765 118.97457485 15.38095093 116.71118164 C15.39364014 115.39889084 15.39364014 115.39889084 15.40658569 114.06008911 C15.400513 113.10311127 15.39444031 112.14613342 15.38818359 111.16015625 C15.39344055 110.15016571 15.39869751 109.14017517 15.40411377 108.09957886 C15.41734123 104.7537296 15.40856576 101.40835428 15.3984375 98.0625 C15.40045744 95.74226795 15.40336821 93.42203651 15.40713501 91.10180664 C15.4115621 86.23610395 15.40511481 81.37056634 15.39111328 76.50488281 C15.37402136 70.26002361 15.38386046 64.01555118 15.40183067 57.77070618 C15.41265803 52.97868929 15.40922696 48.18676449 15.4014473 43.39474487 C15.39944239 41.09178624 15.40191468 38.78881932 15.40888596 36.48587036 C15.41648304 33.27030205 15.40492025 30.05536491 15.38818359 26.83984375 C15.39425629 25.88286591 15.40032898 24.92588806 15.40658569 23.93991089 C15.39812622 23.06505035 15.38966675 22.19018982 15.38095093 21.28881836 C15.37981985 20.52854843 15.37868877 19.7682785 15.37752342 18.98497009 C14.8929942 16.43737713 14.02560539 15.57703547 12 14 C9.04964438 12.99061248 9.04964438 12.99061248 5.8125 12.3125 C4.72582031 12.06113281 3.63914062 11.80976563 2.51953125 11.55078125 C1.68808594 11.36902344 0.85664062 11.18726563 0 11 C0 7.37 0 3.74 0 0 Z"/>
<path transform="translate(838.76171875,407.46875)" fill="#74AB32" d="M0 0 C5.41566937 4.13305372 10.30017648 8.85041263 15.23828125 13.53125 C17.86880787 15.90799668 20.54488387 18.22617978 23.23828125 20.53125 C24.60919922 21.72041016 24.60919922 21.72041016 26.0078125 22.93359375 C36.69503021 32.25579331 36.69503021 32.25579331 49.23828125 38.53125 C49.23828125 39.19125 49.23828125 39.85125 49.23828125 40.53125 C48.28953125 40.70398438 47.34078125 40.87671875 46.36328125 41.0546875 C30.07645709 44.31164445 15.08793027 51.19356573 0.17578125 58.34375 C-22.29470297 68.9903005 -45.73536753 73.06114765 -69.76171875 65.53125 C-80.51701537 61.44418917 -90.31291563 55.0077475 -99.76171875 48.53125 C-100.50260742 48.02416504 -101.24349609 47.51708008 -102.00683594 46.99462891 C-104.36906476 45.37004955 -106.72348236 43.73490907 -109.07421875 42.09375 C-109.82243896 41.57329102 -110.57065918 41.05283203 -111.34155273 40.51660156 C-112.37904663 39.78328613 -112.37904663 39.78328613 -113.4375 39.03515625 C-114.05536377 38.60017822 -114.67322754 38.1652002 -115.30981445 37.71704102 C-116.76171875 36.53125 -116.76171875 36.53125 -117.76171875 34.53125 C-105.46686449 31.91207732 -93.28580012 29.66923907 -80.76171875 28.53125 C-79.58738281 28.41910156 -78.41304687 28.30695313 -77.203125 28.19140625 C-57.80940478 26.66746483 -38.21990965 27.1261883 -18.82421875 28.40625 C-17.63618652 28.48464111 -16.4481543 28.56303223 -15.22412109 28.64379883 C-6.68027239 29.26722364 1.76087992 30.32072313 10.23828125 31.53125 C6.15578805 30.43607039 2.07042605 29.35245123 -2.01757812 28.27807617 C-3.3988886 27.91349296 -4.77946529 27.54611467 -6.15917969 27.17553711 C-23.26335113 22.58646036 -39.71503553 19.96716163 -57.44921875 20.09375 C-58.27902252 20.09479736 -59.10882629 20.09584473 -59.96377563 20.09692383 C-75.55535596 20.13711839 -90.69846999 21.66032446 -106.08081055 24.1640625 C-108.76171875 24.53125 -108.76171875 24.53125 -112.76171875 24.53125 C-106.56813384 11.28468324 -94.28228836 0.55678317 -81.76171875 -6.46875 C-81.02050781 -6.92894531 -80.27929688 -7.38914062 -79.515625 -7.86328125 C-54.68146603 -22.10956655 -22.1578514 -16.24443741 0 0 Z"/>
<path transform="translate(765,495)" fill="#41782C" d="M0 0 C34.98 0 69.96 0 106 0 C106 11.22 106 22.44 106 34 C101.71 34 97.42 34 93 34 C91.02 28.06 89.04 22.12 87 16 C67.695 15.505 67.695 15.505 48 15 C48 30.18 48 45.36 48 61 C52.393125 60.938125 56.78625 60.87625 61.3125 60.8125 C62.69477783 60.80581299 64.07705566 60.79912598 65.5012207 60.79223633 C66.59007568 60.76411865 67.67893066 60.73600098 68.80078125 60.70703125 C69.91622314 60.6913208 71.03166504 60.67561035 72.1809082 60.65942383 C75.17778947 60.26795193 75.17778947 60.26795193 76.81323242 57.6940918 C78.20872935 54.52616162 79.1456961 51.35149991 80 48 C83.96 48 87.92 48 92 48 C92 61.86 92 75.72 92 90 C88.04 90 84.08 90 80 90 C76 79.25 76 79.25 76 77 C62.14 76.505 62.14 76.505 48 76 C48.02804047 82.49774161 48.07094946 88.99174885 48.15258789 95.48852539 C48.17580542 97.69906184 48.19017237 99.90970951 48.19555664 102.12036133 C48.20481861 105.29579272 48.24574963 108.46946582 48.29296875 111.64453125 C48.2890361 112.63524124 48.28510345 113.62595123 48.28105164 114.64668274 C48.33544359 117.19618891 48.4252845 119.51557956 49 122 C52.27583267 124.9130545 55.53507255 125.51754148 59.8125 126.1875 C61.524375 126.455625 63.23625 126.72375 65 127 C65 130.63 65 134.26 65 138 C43.22 138 21.44 138 -1 138 C-1 134.37 -1 130.74 -1 127 C-0.16855469 126.81824219 0.66289063 126.63648438 1.51953125 126.44921875 C2.60621094 126.19785156 3.69289063 125.94648437 4.8125 125.6875 C5.89144531 125.44386719 6.97039063 125.20023438 8.08203125 124.94921875 C11.08123311 123.97357477 12.09751101 123.42415519 14 121 C14.4460344 118.97439184 14.4460344 118.97439184 14.3742218 116.71118164 C14.38123611 115.83632111 14.38825043 114.96146057 14.39547729 114.06008911 C14.38783356 113.10311127 14.38018982 112.14613342 14.37231445 111.16015625 C14.37596512 110.15016571 14.37961578 109.14017517 14.38337708 108.09957886 C14.39149756 104.75371603 14.37785973 101.40833521 14.36328125 98.0625 C14.36276282 95.74226888 14.36327984 93.42203732 14.36479187 91.10180664 C14.36470208 86.23609877 14.3542585 81.37055636 14.33618164 76.50488281 C14.31349438 70.26008659 14.31294969 64.01553226 14.31969929 57.77070618 C14.32303679 52.97869711 14.31641329 48.18674344 14.30657005 43.39474487 C14.30271399 41.09178965 14.30157151 38.78882827 14.3031559 36.48587036 C14.30352572 33.27040818 14.29092941 30.05525903 14.2746582 26.83984375 C14.27713562 25.88286591 14.27961304 24.92588806 14.28216553 23.93991089 C14.27508072 23.06505035 14.26799591 22.19018982 14.26069641 21.28881836 C14.25864354 20.52854843 14.25659067 19.7682785 14.25447559 18.98497009 C14.1085985 16.68147169 14.1085985 16.68147169 12 14 C9.6572667 13.02160786 9.6572667 13.02160786 7 12.375 C2.10126582 11.05063291 2.10126582 11.05063291 0 10 C0 6.7 0 3.4 0 0 Z"/>
<path transform="translate(1003,501)" fill="#3F762B" d="M0 0 C0 11.22 0 22.44 0 34 C-4.29 34 -8.58 34 -13 34 C-13.38929688 32.54207031 -13.77859375 31.08414063 -14.1796875 29.58203125 C-16.77368549 19.20608552 -16.77368549 19.20608552 -22.515625 10.52734375 C-25.05946857 9.28207901 -27.22177562 8.51812545 -30 8 C-30.78632812 7.814375 -31.57265625 7.62875 -32.3828125 7.4375 C-43.46961794 5.58418327 -53.46467583 6.56669029 -62.6875 13.0625 C-73.1376501 21.68888918 -77.65734823 35.92406359 -79 49 C-80.25816655 68.98769132 -80.19838081 90.88970052 -66.4375 107 C-65.633125 107.66 -64.82875 108.32 -64 109 C-63.278125 109.680625 -62.55625 110.36125 -61.8125 111.0625 C-52.08073839 117.76660244 -41.51045704 118.4260302 -30 117 C-21.22471252 114.77193533 -16.81369468 111.55795662 -12.078125 103.88671875 C-11.47484375 102.83097656 -10.8715625 101.77523437 -10.25 100.6875 C-9.63640625 99.61886719 -9.0228125 98.55023437 -8.390625 97.44921875 C-7.93171875 96.64097656 -7.4728125 95.83273437 -7 95 C-3.65626525 95.55728913 -0.96687001 96.35173889 2 98 C1.0278775 118.6576031 1.0278775 118.6576031 -4.55078125 124.671875 C-6.66685472 125.7774894 -8.69580008 126.36930142 -11 127 C-12.53720703 127.61875 -12.53720703 127.61875 -14.10546875 128.25 C-34.28473058 136.27610188 -58.01304589 136.59532474 -78.3125 128.75 C-84.05303879 126.18491403 -89.06199004 122.87166229 -94 119 C-95.48693359 117.8553125 -95.48693359 117.8553125 -97.00390625 116.6875 C-100.14168707 114.04410905 -102.39961327 110.9653745 -104.5625 107.5 C-104.94672119 106.89051514 -105.33094238 106.28103027 -105.72680664 105.65307617 C-113.64450062 92.69882586 -116.39626999 79.21753566 -116.3125 64.1875 C-116.30758545 63.13723633 -116.3026709 62.08697266 -116.29760742 61.00488281 C-115.9972396 41.03581383 -109.46331498 24.81441262 -95.6875 10.25 C-71.04091286 -13.2648561 -29.64775496 -14.82387748 0 0 Z"/>
<path transform="translate(658,509)" fill="#FAFBF9" d="M0 0 C30.93071594 0 30.93071594 0 41 10 C41.62390625 10.60972656 42.2478125 11.21945312 42.890625 11.84765625 C54.26464913 23.86684561 55.18039497 39.50186253 55.25 55.25 C55.270625 56.40113281 55.29125 57.55226563 55.3125 58.73828125 C55.38247892 74.25610697 51.33495721 89.61075533 40.3125 100.94140625 C37.06047617 103.83636665 34.11837466 105.61990636 30 107 C28.69289063 107.44279297 28.69289063 107.44279297 27.359375 107.89453125 C18.98141791 110.3474358 8.43755968 111.81251989 0 109 C0 73.03 0 37.06 0 0 Z"/>
<path transform="translate(716,663)" fill="#F8FAF6" d="M0 0 C3.34125 -0.0825 6.6825 -0.165 10.125 -0.25 C11.16672363 -0.28641602 12.20844727 -0.32283203 13.28173828 -0.36035156 C19.03094319 -0.42891296 22.51620346 0.01758646 27 4 C29.68999974 8.03499961 29.55894842 11.26145222 29 16 C27.625 18.875 27.625 18.875 26 21 C25.34 21.99 24.68 22.98 24 24 C24.433125 24.62648438 24.86625 25.25296875 25.3125 25.8984375 C25.869375 26.71570313 26.42625 27.53296875 27 28.375 C27.556875 29.18710937 28.11375 29.99921875 28.6875 30.8359375 C30 33 30 33 30 35 C26.8109321 35.65083018 24.16278564 35.85385108 21 35 C18.84816731 32.57594752 17.34877497 30.12914471 15.80078125 27.28515625 C14.12853462 24.68641835 14.12853462 24.68641835 10.79296875 24.18359375 C9.87128906 24.12300781 8.94960938 24.06242188 8 24 C8 27.3 8 30.6 8 34 C5.36 34 2.72 34 0 34 C0 22.78 0 11.56 0 0 Z"/>
<path transform="translate(624,663)" fill="#F7FAF5" d="M0 0 C3.34125 -0.0825 6.6825 -0.165 10.125 -0.25 C11.16672363 -0.28641602 12.20844727 -0.32283203 13.28173828 -0.36035156 C19.19477201 -0.43086668 22.51165971 0.04996957 27 4 C29.50941875 7.81868071 29.16427234 11.47845728 28.5390625 15.84765625 C27.74100202 19.03411511 26.40432847 20.79603224 24 23 C20.26679925 24.83778493 17.32571673 25.22471607 13.1875 25.125 C11.72376953 25.09792969 11.72376953 25.09792969 10.23046875 25.0703125 C9.49441406 25.04710937 8.75835938 25.02390625 8 25 C8 28.3 8 31.6 8 35 C5.36 35 2.72 35 0 35 C0 23.45 0 11.9 0 0 Z"/>
<path transform="translate(939.49609375,662.8984375)" fill="#F4F7F1" d="M0 0 C1.88154202 0.94580187 3.70113503 2.01309685 5.50390625 3.1015625 C5.50390625 7.1015625 5.50390625 7.1015625 4.00390625 8.8515625 C3.50890625 9.2640625 3.01390625 9.6765625 2.50390625 10.1015625 C1.69953125 9.7715625 0.89515625 9.4415625 0.06640625 9.1015625 C-4.23640713 7.89375524 -8.0652626 7.31124347 -12.49609375 8.1015625 C-15.3544738 10.26277668 -16.27075092 11.76848174 -16.8671875 15.296875 C-17.08209575 19.24337195 -17.03656523 21.38093386 -14.62109375 24.6015625 C-10.17906332 27.73711339 -6.85936487 27.17818066 -1.49609375 27.1015625 C-1.49609375 23.4715625 -1.49609375 19.8415625 -1.49609375 16.1015625 C1.14390625 16.1015625 3.78390625 16.1015625 6.50390625 16.1015625 C6.50390625 21.0515625 6.50390625 26.0015625 6.50390625 31.1015625 C0.02655574 36.0366867 -6.55769194 36.15330928 -14.49609375 35.1015625 C-19.20633128 33.42443247 -21.77185997 31.24631912 -24.43359375 27.0390625 C-26.70727056 20.75301485 -27.7264738 15.23221406 -24.80859375 8.9140625 C-19.75992721 -0.30911983 -9.81274946 -3.53197555 0 0 Z"/>
<path transform="translate(762,663)" fill="#F6F8F2" d="M0 0 C8.58 0 17.16 0 26 0 C26 2.31 26 4.62 26 7 C20.06 7 14.12 7 8 7 C8 9.31 8 11.62 8 14 C13.28 14 18.56 14 24 14 C24 16.31 24 18.62 24 21 C18.72 21 13.44 21 8 21 C8 23.31 8 25.62 8 28 C13.94 28 19.88 28 26 28 C26 30.31 26 32.62 26 35 C17.42 35 8.84 35 0 35 C0 23.45 0 11.9 0 0 Z"/>
<path transform="translate(873,663)" fill="#F7F9F4" d="M0 0 C8.58 0 17.16 0 26 0 C26 2.31 26 4.62 26 7 C20.06 7 14.12 7 8 7 C8 9.31 8 11.62 8 14 C13.28 14 18.56 14 24 14 C24 15.98 24 17.96 24 20 C18.72 20 13.44 20 8 20 C8 22.64 8 25.28 8 28 C13.94 28 19.88 28 26 28 C26 30.31 26 32.62 26 35 C17.42 35 8.84 35 0 35 C0 23.45 0 11.9 0 0 Z"/>
<path transform="translate(668,663)" fill="#F7F9F4" d="M0 0 C2.64 0 5.28 0 8 0 C8.01458252 0.7113208 8.02916504 1.4226416 8.04418945 2.15551758 C8.11861006 5.37506332 8.21529 8.59356518 8.3125 11.8125 C8.33505859 12.93205078 8.35761719 14.05160156 8.38085938 15.20507812 C8.41630859 16.27822266 8.45175781 17.35136719 8.48828125 18.45703125 C8.51446533 19.44678955 8.54064941 20.43654785 8.56762695 21.45629883 C8.80890242 24.02661361 8.80890242 24.02661361 10.34448242 25.83081055 C12.87514527 27.61806086 14.98617557 27.25115204 18 27 C18.99 26.67 19.98 26.34 21 26 C21.33 17.42 21.66 8.84 22 0 C24.64 0 27.28 0 30 0 C30.14564235 4.37464796 30.23419143 8.7486696 30.3125 13.125 C30.35439453 14.3625 30.39628906 15.6 30.43945312 16.875 C30.57762012 27.15462412 30.57762012 27.15462412 27.73046875 30.7421875 C22.23415155 35.28706782 18.23401461 35.4942073 11.14453125 35.3828125 C6.47489605 34.81433517 4.96566666 33.60689188 2 30 C0.14471724 26.22583165 -0.23822705 23.22713726 -0.1953125 19.04296875 C-0.18886719 17.93115234 -0.18242188 16.81933594 -0.17578125 15.67382812 C-0.15902344 14.52333984 -0.14226563 13.37285156 -0.125 12.1875 C-0.11597656 11.01767578 -0.10695313 9.84785156 -0.09765625 8.64257812 C-0.07413732 5.76150947 -0.04126852 2.88086011 0 0 Z"/>
<path transform="translate(823,663)" fill="#F7FAF5" d="M0 0 C2.97 0 5.94 0 9 0 C11.97 6.93 14.94 13.86 18 21 C19.093125 18.834375 20.18625 16.66875 21.3125 14.4375 C21.65063721 13.77032959 21.98877441 13.10315918 22.3371582 12.41577148 C24.38596434 8.33664917 26.23850631 4.21132491 28 0 C30.64 0 33.28 0 36 0 C35.32574837 4.21407267 33.94711857 7.86156297 32.3125 11.796875 C31.91865112 12.74823334 31.91865112 12.74823334 31.5168457 13.71881104 C30.96424994 15.05091169 30.40944136 16.38209634 29.85253906 17.71240234 C28.99779801 19.75526283 28.15072803 21.8011793 27.3046875 23.84765625 C23.14478828 33.85521172 23.14478828 33.85521172 22 35 C19.32941149 35.14115161 16.67567762 35.04247107 14 35 C12.16054788 30.82185405 10.32767321 26.64090724 8.50073242 22.45727539 C7.8788182 21.03559534 7.2551399 19.61468559 6.62963867 18.19458008 C5.72886399 16.14866782 4.83455059 14.100034 3.94140625 12.05078125 C3.6622084 11.4203743 3.38301056 10.78996735 3.09535217 10.14045715 C1.63977005 6.78255908 0.55599475 3.6214793 0 0 Z"/>
<path transform="translate(767,423)" fill="#8CBB48" d="M0 0 C0.66 0.66 1.32 1.32 2 2 C4.42246595 2.37095708 4.42246595 2.37095708 7.2265625 2.4140625 C8.7734375 2.47207031 8.7734375 2.47207031 10.3515625 2.53125 C11.97191406 2.57765625 11.97191406 2.57765625 13.625 2.625 C14.71296875 2.66367187 15.8009375 2.70234375 16.921875 2.7421875 C19.61441165 2.83666247 22.30693757 2.92222431 25 3 C25 3.33 25 3.66 25 4 C24.13947021 4.01981934 23.27894043 4.03963867 22.39233398 4.06005859 C19.12111224 4.13934766 15.85024557 4.22605662 12.5793457 4.31738281 C11.17837796 4.35506985 9.77733302 4.39001268 8.3762207 4.421875 C-0.40970558 4.62392289 -8.91635464 5.23817728 -17.61303711 6.58447266 C-21.10926043 7.01340454 -24.4812243 7.06888031 -28 7 C-28 6.34 -28 5.68 -28 5 C-28.99 4.67 -29.98 4.34 -31 4 C-21.71378531 1.97391679 -13.13724701 0.66954069 -3.59765625 0.9921875 C-2.31181641 0.99605469 -2.31181641 0.99605469 -1 1 C-0.67 0.67 -0.34 0.34 0 0 Z"/>
<path transform="translate(632,670)" fill="#7BB13F" d="M0 0 C8.625 -0.25 8.625 -0.25 12 2 C12.65228645 7.10957722 12.65228645 7.10957722 10.76953125 9.6796875 C8.47644549 11.39064332 7.13999998 11.31043478 4.3125 11.1875 C2.889375 11.125625 1.46625 11.06375 0 11 C0 7.37 0 3.74 0 0 Z"/>
<path transform="translate(724,670)" fill="#77A739" d="M0 0 C1.588125 -0.061875 3.17625 -0.12375 4.8125 -0.1875 C6.15248047 -0.23970703 6.15248047 -0.23970703 7.51953125 -0.29296875 C10 0 10 0 11.8046875 1.3515625 C13.47948435 3.66124965 13.35691675 5.21604938 13 8 C11 10 11 10 8.3984375 10.1953125 C7.40070312 10.17210937 6.40296875 10.14890625 5.375 10.125 C3.87066406 10.09792969 3.87066406 10.09792969 2.3359375 10.0703125 C1.56507813 10.04710937 0.79421875 10.02390625 0 10 C0 6.7 0 3.4 0 0 Z"/>
<path transform="translate(754,437)" fill="#9CC552" d="M0 0 C0 0.66 0 1.32 0 2 C-8.91 3.32 -17.82 4.64 -27 6 C-26.67 7.32 -26.34 8.64 -26 10 C-29.65316671 8.75023244 -30.78065836 8.32901247 -33 5 C-29.85550776 4.34752353 -26.70919244 3.70427425 -23.5625 3.0625 C-22.68400391 2.88009766 -21.80550781 2.69769531 -20.90039062 2.50976562 C-13.94104784 1.09735288 -7.1128236 0 0 0 Z"/>
<path transform="translate(727,380)" fill="#85B740" d="M0 0 C0.66 0.33 1.32 0.66 2 1 C-2.455 8.425 -2.455 8.425 -7 16 C-7.99 15.01 -8.98 14.02 -10 13 C-8.71389867 11.0170112 -7.42150861 9.03866624 -6.125 7.0625 C-5.40570312 5.96035156 -4.68640625 4.85820312 -3.9453125 3.72265625 C-2 1 -2 1 0 0 Z"/>
<path transform="translate(750,405)" fill="#8FBD43" d="M0 0 C0 0.99 0 1.98 0 3 C-0.99 3.66 -1.98 4.32 -3 5 C-3.1546875 5.9590625 -3.1546875 5.9590625 -3.3125 6.9375 C-4 9 -4 9 -6.6875 10.375 C-7.780625 10.91125 -8.87375 11.4475 -10 12 C-12.15187711 13.88957155 -14.04175164 15.90187676 -16 18 C-16.66 17.67 -17.32 17.34 -18 17 C-15.75417636 14.72500399 -13.50262096 12.45576416 -11.25 10.1875 C-10.61578125 9.54490234 -9.9815625 8.90230469 -9.328125 8.24023438 C-8.4 7.30727539 -8.4 7.30727539 -7.453125 6.35546875 C-6.88754883 5.78465576 -6.32197266 5.21384277 -5.73925781 4.62573242 C-3.92139169 2.92652264 -2.01504683 1.45724172 0 0 Z"/>
<path transform="translate(772,298)" fill="#D9EDCC" d="M0 0 C1.32278853 3.9683656 0.36238302 6.01453109 -0.8125 10 C-1.34810547 11.85625 -1.34810547 11.85625 -1.89453125 13.75 C-3 17 -3 17 -5 20 C-5.66 19.67 -6.32 19.34 -7 19 C-4.94235079 12.54646385 -2.57616518 6.2638737 0 0 Z"/>
<path transform="translate(601,253)" fill="#E2EDD3" d="M0 0 C4.24404412 3.88026891 7.10917547 8.04254346 10 13 C9.01 13.66 8.02 14.32 7 15 C5.82823482 12.87767021 4.66245215 10.75242209 3.5 8.625 C3.16613281 8.02171875 2.83226562 7.4184375 2.48828125 6.796875 C0 2.2265625 0 2.2265625 0 0 Z"/>
<path transform="translate(731,424)" fill="#96C250" d="M0 0 C0 0.99 0 1.98 0 3 C2.03268602 5.16343011 2.03268602 5.16343011 5 7 C1.7 7.33 -1.6 7.66 -5 8 C-3.47524303 4.95048605 -2.07114674 2.63600494 0 0 Z"/>
<path transform="translate(714,427)" fill="#90C251" d="M0 0 C0.99 0.33 1.98 0.66 3 1 C1.90220176 2.15193623 0.79650554 3.29634937 -0.3125 4.4375 C-0.92738281 5.07558594 -1.54226563 5.71367187 -2.17578125 6.37109375 C-4 8 -4 8 -7 9 C-5.50517801 4.74550664 -4.1016749 2.05083745 0 0 Z"/>
<path transform="translate(845.3125,437.4375)" fill="#D8E8C5" d="M0 0 C1.06863281 0.28746094 2.13726563 0.57492187 3.23828125 0.87109375 C4.04652344 1.09925781 4.85476563 1.32742188 5.6875 1.5625 C1.91378488 2.8982457 -1.17081347 2.28658671 -5.0625 1.625 C-6.81820312 1.33302734 -6.81820312 1.33302734 -8.609375 1.03515625 C-9.50140625 0.87917969 -10.3934375 0.72320312 -11.3125 0.5625 C-11.3125 0.2325 -11.3125 -0.0975 -11.3125 -0.4375 C-7.07924194 -1.62344057 -4.20854576 -1.15619389 0 0 Z"/>
<path transform="translate(468,402)" fill="#DEECD2" d="M0 0 C4.77962147 -0.19118486 8.60470084 0.01165038 13 2 C13.33 2.99 13.66 3.98 14 5 C12.22739369 4.54857225 10.4569632 4.08859477 8.6875 3.625 C7.20830078 3.24214844 7.20830078 3.24214844 5.69921875 2.8515625 C3 2 3 2 0 0 Z"/>
<path transform="translate(762,285)" fill="#65A12D" d="M0 0 C0 0.99 0 1.98 0 3 C-2.1875 4.82421875 -2.1875 4.82421875 -5 6.6875 C-5.928125 7.31011719 -6.85625 7.93273437 -7.8125 8.57421875 C-8.8953125 9.27998047 -8.8953125 9.27998047 -10 10 C-10 9.01 -10 8.02 -10 7 C-7.8125 5.17578125 -7.8125 5.17578125 -5 3.3125 C-3.6078125 2.37857422 -3.6078125 2.37857422 -2.1875 1.42578125 C-1.1046875 0.72001953 -1.1046875 0.72001953 0 0 Z"/>
<path transform="translate(577,214)" fill="#629930" d="M0 0 C3.43595166 1.52708963 6.11912454 3.59927045 9 6 C8.67 6.66 8.34 7.32 8 8 C6.35 7.01 4.7 6.02 3 5 C2.34 5.99 1.68 6.98 1 8 C0.67 5.36 0.34 2.72 0 0 Z"/>
<path transform="translate(416,386)" fill="#679D38" d="M0 0 C1.98 0 3.96 0 6 0 C6 1.32 6 2.64 6 4 C6.66 4.33 7.32 4.66 8 5 C7.67 5.99 7.34 6.98 7 8 C5.83035398 6.8572081 4.66435444 5.71068285 3.5 4.5625 C2.8503125 3.92441406 2.200625 3.28632813 1.53125 2.62890625 C0 1 0 1 0 0 Z"/>
<path transform="translate(611,396)" fill="#E6F3D4" d="M0 0 C2.66666667 2.66666667 5.33333333 5.33333333 8 8 C7.67 8.66 7.34 9.32 7 10 C5.87411986 9.04270084 4.7493285 8.08412105 3.625 7.125 C2.99851562 6.59132813 2.37203125 6.05765625 1.7265625 5.5078125 C0.44163349 4.38567993 -0.79371975 3.20628025 -2 2 C-1.34 2 -0.68 2 0 2 C0 1.34 0 0.68 0 0 Z"/>
<path transform="translate(815,753)" fill="#CCCBCB" d="M0 0 C-0.33 0.99 -0.66 1.98 -1 3 C-3.64 3 -6.28 3 -9 3 C-6.38997624 -0.48003168 -4.1689578 -0.27793052 0 0 Z"/>
<path transform="translate(747,425)" fill="#94BF51" d="M0 0 C3 0.1875 3 0.1875 6 1 C6.66 1.99 7.32 2.98 8 4 C1.375 4.25 1.375 4.25 -2 2 C-1.34 1.34 -0.68 0.68 0 0 Z"/>
<path transform="translate(656,443)" fill="#6BB330" d="M0 0 C0.33 0 0.66 0 1 0 C1.95261487 4.76307437 2.08333357 9.1666528 2 14 C-0.67318976 8.83183314 -0.98463588 5.79841127 0 0 Z"/>
<path transform="translate(636,428)" fill="#93C344" d="M0 0 C2.5625 2.25 2.5625 2.25 5 5 C4.8125 7.3125 4.8125 7.3125 4 9 C0 3.375 0 3.375 0 0 Z"/>
<path transform="translate(774,273)" fill="#6DA43A" d="M0 0 C0.66 0.33 1.32 0.66 2 1 C0.02 3.31 -1.96 5.62 -4 8 C-4.33 7.01 -4.66 6.02 -5 5 C-3.35 3.35 -1.7 1.7 0 0 Z"/>
<path transform="translate(654,477)" fill="#8BBE4D" d="M0 0 C0.33 1.98 0.66 3.96 1 6 C-1.475 5.01 -1.475 5.01 -4 4 C-4 3.01 -4 2.02 -4 1 C-1 0 -1 0 0 0 Z"/>
</svg>